<?xml version="1.0" encoding="utf-8"?>
<!-- Generator: Adobe Illustrator 25.4.1, SVG Export Plug-In . SVG Version: 6.00 Build 0)  -->
<!DOCTYPE svg PUBLIC "-//W3C//DTD SVG 1.1//EN" "http://www.w3.org/Graphics/SVG/1.1/DTD/svg11.dtd" [
	<!ENTITY ns_extend "http://ns.adobe.com/Extensibility/1.0/">
	<!ENTITY ns_ai "http://ns.adobe.com/AdobeIllustrator/10.0/">
	<!ENTITY ns_graphs "http://ns.adobe.com/Graphs/1.0/">
	<!ENTITY ns_vars "http://ns.adobe.com/Variables/1.0/">
	<!ENTITY ns_imrep "http://ns.adobe.com/ImageReplacement/1.0/">
	<!ENTITY ns_sfw "http://ns.adobe.com/SaveForWeb/1.0/">
	<!ENTITY ns_custom "http://ns.adobe.com/GenericCustomNamespace/1.0/">
	<!ENTITY ns_adobe_xpath "http://ns.adobe.com/XPath/1.0/">
]>
<svg version="1.1" id="Layer_1" xmlns:x="&ns_extend;" xmlns:i="&ns_ai;" xmlns:graph="&ns_graphs;"
	 xmlns="http://www.w3.org/2000/svg" xmlns:xlink="http://www.w3.org/1999/xlink" x="0px" y="0px" viewBox="0 0 274.8 237.1"
	 style="enable-background:new 0 0 274.8 237.1;" xml:space="preserve">
<style type="text/css">
	.st0{fill:#8E4050;stroke:#8E4050;stroke-width:2;stroke-linecap:round;stroke-linejoin:round;stroke-miterlimit:10;}
</style>
<metadata>
	<sfw  xmlns="&ns_sfw;">
		<slices></slices>
		<sliceSourceBounds  bottomLeftOrigin="true" height="229.2" width="261.7" x="409.6" y="-654.2"></sliceSourceBounds>
	</sfw>
</metadata>
<g>
	<path class="st0" d="M137,200c-35.7,0-71.4,0.2-107.1-0.2c-6.5-0.1-8.3,2.1-7.8,8.1c0.4,5.2,0.1,10.4,0.1,15.6
		c0,5.1-2.4,8.4-7.6,8.6c-5.3,0.1-7.7-3.5-7.8-8.4c-0.2-9-0.1-18.1-0.1-27.1c0-19.9,0-39.8,0-59.7c0-17.7,6.8-31.9,21.5-42.2
		c2-1.4,3.5-4,4.3-6.4c5.4-17.2,10.7-34.5,15.8-51.8C53.5,19,64.7,6.7,83,6.1c35.8-1.2,71.8-1.2,107.6,0.1
		c17.7,0.6,28.8,12.5,33.9,29.5c5.3,17.5,10.5,35,16,52.4c0.9,2.7,2.9,5.6,5.2,7.3c12.8,9.5,20.2,22,20.4,37.9
		c0.4,29.6,0.3,59.2-0.1,88.8c0,3.2-2.3,7.5-4.8,9.3c-4.2,2.9-9.5-0.5-10-6.2c-0.6-6.1-0.6-12.2-0.3-18.3c0.3-5.3-1.5-7-6.9-7
		c-32.3,0.2-64.6,0.1-96.9,0.1C143.8,200,140.4,200,137,200z M136.3,184.5c35.7,0,71.4-0.1,107,0.1c6,0,7.8-1.8,7.7-7.7
		c-0.4-14,0-28-0.1-42c-0.1-18.2-14.5-32.7-32.8-32.7c-54.4-0.1-108.8-0.1-163.3,0c-18.2,0-32.5,14.7-32.6,32.9
		c-0.1,12.9,0,25.8,0,38.6c0,10.8,0,10.8,10.5,10.8C67.2,184.5,101.8,184.5,136.3,184.5z M224.2,86.3c-5.8-18-10.9-35.5-17.3-52.5
		c-3.4-9-11.8-12.7-21.4-12.8c-32.5-0.1-65.1-0.1-97.6,0C75.8,21,68,26.8,64.1,38.3C60.5,49,57.4,59.8,54.1,70.6
		c-1.6,5.1-3,10.1-4.6,15.6C107.9,86.3,165.4,86.3,224.2,86.3z"/>
	<path class="st0" d="M47.7,138.6c0.3-6.2,6-11.5,12.1-11c6.5,0.5,11.4,5.8,11,12.1c-0.3,6.5-5.5,11.3-12.1,11
		C52.3,150.3,47.4,145,47.7,138.6z"/>
	<path class="st0" d="M214.1,127.4c6.1,0,11.6,5.7,11.4,11.8c-0.2,6.6-5.2,11.4-11.8,11.3c-6.8-0.1-11.3-4.7-11.2-11.6
		C202.6,132.4,207.6,127.4,214.1,127.4z"/>
</g>
</svg>
