<?xml version="1.0" encoding="utf-8"?>
<!-- Generator: Adobe Illustrator 25.4.1, SVG Export Plug-In . SVG Version: 6.00 Build 0)  -->
<!DOCTYPE svg PUBLIC "-//W3C//DTD SVG 1.1//EN" "http://www.w3.org/Graphics/SVG/1.1/DTD/svg11.dtd" [
	<!ENTITY ns_extend "http://ns.adobe.com/Extensibility/1.0/">
	<!ENTITY ns_ai "http://ns.adobe.com/AdobeIllustrator/10.0/">
	<!ENTITY ns_graphs "http://ns.adobe.com/Graphs/1.0/">
	<!ENTITY ns_vars "http://ns.adobe.com/Variables/1.0/">
	<!ENTITY ns_imrep "http://ns.adobe.com/ImageReplacement/1.0/">
	<!ENTITY ns_sfw "http://ns.adobe.com/SaveForWeb/1.0/">
	<!ENTITY ns_custom "http://ns.adobe.com/GenericCustomNamespace/1.0/">
	<!ENTITY ns_adobe_xpath "http://ns.adobe.com/XPath/1.0/">
]>
<svg version="1.1" id="Layer_1" xmlns:x="&ns_extend;" xmlns:i="&ns_ai;" xmlns:graph="&ns_graphs;"
	 xmlns="http://www.w3.org/2000/svg" xmlns:xlink="http://www.w3.org/1999/xlink" x="0px" y="0px" viewBox="0 0 512 512"
	 style="enable-background:new 0 0 512 512;" xml:space="preserve">
<style type="text/css">
	.st0{fill:#8E4050;stroke:#8E4050;stroke-width:2;stroke-linecap:round;stroke-linejoin:round;stroke-miterlimit:10;}
</style>
<metadata>
	<sfw  xmlns="&ns_sfw;">
		<slices></slices>
		<sliceSourceBounds  bottomLeftOrigin="true" height="244.3" width="489.1" x="10.9" y="129.9"></sliceSourceBounds>
	</sfw>
</metadata>
<g>
	<path class="st0" d="M189.6,142c-1.2,1.7-2.1,4.4-3.7,5c-13.9,5.1-6.7,16.2-8.3,24.1c22.9,0,45,0,67.9,0c0,46.3,0,93.3,0,141.2
		c-2.6,0.1-5.2,0.4-7.8,0.4c-30.3,0-60.5,0.2-90.8-0.2c-4-0.1-8.9-2.2-11.9-5c-18.5-17.2-46.8-17.3-65.3,0c-3,2.8-7.8,4.7-11.9,5
		c-10.9,0.7-21.8,0-32.7,0.3c-5.1,0.1-6.6-1.8-6.6-6.7c0.2-15.3,0.3-30.5,0-45.8c-0.1-5.7,2.2-7.4,7.4-8.4
		c21.7-4.2,43.2-9,64.9-13.2c5.5-1.1,8.5-3.2,7.3-9.1c-2.7-14.1,3.2-21.4,16.9-25.9c15.5-5,30-13,45.1-19.3c4.8-2,6.6-4.7,6.3-9.8
		c-0.3-7.6-0.5-15.3,0.2-22.9C167.6,139.8,178.8,135,189.6,142z M109.6,236.6c18.2,0,36,0,53.6,0c0-13.6,0-26.5,0-40.1
		c-12.6,4.4-24.7,8.6-36.7,12.8C107.7,215.8,107.7,215.8,109.6,236.6z"/>
	<path class="st0" d="M499,355.8c-6.1,0-11.1,0-16.9,0c3.8-17.8,1.5-33.6-11.7-46.4c-8.9-8.6-19.5-12.8-31.8-12.5
		c-28.4,0.7-43,21.2-41.8,58.9c-7.2,0-14.3,0-21.5,0c1.7-38.1-14.1-59.5-43.2-59.4c-28.7,0.1-44.3,21.6-42.7,59.2
		c-47.2,0-94.4,0-140.2,0c-0.9-11.9-1.8-23.4-2.7-36c1.7,0,4.6,0,7.4,0c39,0,78,0,116.9,0c4,0,6.9-0.2,9.1-4.7
		c10.6-21.5,28.4-33.1,52.2-33.2c24.1-0.1,42,11.7,52.9,33.4c0.4,0.7,0.9,1.3,1.7,2.6c1.4-2.5,2.7-4.7,4-6.9
		c11.4-18.8,28.2-28.6,50.2-28.1c21.6,0.5,37.7,10.8,48.5,29.6c1.7,2.9,5.1,4.8,7.3,7.5c1.1,1.3,2,3.1,2,4.7
		C499.1,334.7,499,344.8,499,355.8z"/>
	<path class="st0" d="M102.2,381.1c-22.1,0-40.1-18.2-39.7-40.2c0.3-21.6,18.4-39.5,39.8-39.5c21.7,0,40.1,18.7,39.7,40.4
		C141.6,363.6,123.9,381.1,102.2,381.1z M102.2,363.5c12.5,0,22.3-9.7,22.3-22.2s-9.8-22.3-22.3-22.3s-22.2,9.7-22.3,22.3
		C79.9,353.8,89.6,363.5,102.2,363.5z"/>
	<path class="st0" d="M332.3,378c-20.2,0-36.9-16.7-37-37s16.5-36.9,36.8-37c20.7-0.1,37.6,16.7,37.4,37.3
		C369.4,361.4,352.5,378,332.3,378z M353.3,340.7c-0.1-11.5-9.2-20.7-20.7-20.8c-11.7-0.1-21.3,9.5-21.2,21.2
		c0.1,11.8,9.7,21,21.6,20.7C344.6,361.5,353.4,352.3,353.3,340.7z"/>
	<path class="st0" d="M439.5,378c-20.2-0.1-37-16.8-37-36.9c0-20.6,16.9-37.3,37.6-37.1c20.3,0.2,36.7,16.9,36.5,37.3
		C476.5,361.6,459.9,378,439.5,378z M439.7,361.8c11.5,0,20.8-9,21.1-20.5c0.2-11.6-9.3-21.4-21-21.5c-11.8,0-21.1,9.6-20.9,21.4
		C419,352.9,428.1,361.8,439.7,361.8z"/>
	<path class="st0" d="M11.9,320.2c15.8,0,31.4,0,45.9,0c-0.9,12-1.7,23.4-2.6,35.5c-13.3,0-28.1,0-43.3,0
		C11.9,343.8,11.9,332.2,11.9,320.2z"/>
</g>
</svg>
