<?xml version="1.0" encoding="utf-8"?>
<!-- Generator: Adobe Illustrator 25.4.1, SVG Export Plug-In . SVG Version: 6.00 Build 0)  -->
<!DOCTYPE svg PUBLIC "-//W3C//DTD SVG 1.1//EN" "http://www.w3.org/Graphics/SVG/1.1/DTD/svg11.dtd" [
	<!ENTITY ns_extend "http://ns.adobe.com/Extensibility/1.0/">
	<!ENTITY ns_ai "http://ns.adobe.com/AdobeIllustrator/10.0/">
	<!ENTITY ns_graphs "http://ns.adobe.com/Graphs/1.0/">
	<!ENTITY ns_vars "http://ns.adobe.com/Variables/1.0/">
	<!ENTITY ns_imrep "http://ns.adobe.com/ImageReplacement/1.0/">
	<!ENTITY ns_sfw "http://ns.adobe.com/SaveForWeb/1.0/">
	<!ENTITY ns_custom "http://ns.adobe.com/GenericCustomNamespace/1.0/">
	<!ENTITY ns_adobe_xpath "http://ns.adobe.com/XPath/1.0/">
]>
<svg version="1.1" id="Layer_1" xmlns:x="&ns_extend;" xmlns:i="&ns_ai;" xmlns:graph="&ns_graphs;"
	 xmlns="http://www.w3.org/2000/svg" xmlns:xlink="http://www.w3.org/1999/xlink" x="0px" y="0px" viewBox="0 0 512 512"
	 style="enable-background:new 0 0 512 512;" xml:space="preserve">
<style type="text/css">
	.st0{fill:#8E4050;stroke:#8E4050;stroke-width:2;stroke-linecap:round;stroke-linejoin:round;stroke-miterlimit:10;}
</style>
<metadata>
	<sfw  xmlns="&ns_sfw;">
		<slices></slices>
		<sliceSourceBounds  bottomLeftOrigin="true" height="294.7" width="473.2" x="19.9" y="115"></sliceSourceBounds>
	</sfw>
</metadata>
<g>
	<path class="st0" d="M192.6,279.3c-5.4-12.8-12.9-23.4-21.8-32.9c-18.8-20-41-34.1-68.9-37c-19-1.9-37.2,1.8-54.6,9.3
		c-3.1,1.3-5.6,2-7.7-1.4c-2-3.3-0.6-5.5,1.9-7.7c23.1-20.2,49.9-29.9,80.5-27.6c15.6,1.2,29.9,8,44,14.4
		c9.2,4.3,18.1,9.2,27.2,13.7c1.9,0.9,4.1,1.8,6.1,1.8c15.5-0.1,31-0.3,46.5-0.8c1.6,0,3.3-1.4,4.7-2.5
		c20.8-15.3,41.4-30.9,62.5-45.7c6.7-4.7,14.8-7.4,22.6-10.3c2.3-0.9,6.4-0.3,8.3,1.3c8.2,6.8,16.1,14,23.5,21.6
		c3,3.1,5.3,7.3,6.8,11.4c1.2,3.2,2.7,3.9,5.7,3.8c18.7-0.5,36.9,2.4,54,10.3c2,0.9,4,1.8,5.6,3.2c1,0.9,2.1,2.9,1.7,3.9
		c-0.4,1.1-2.3,1.9-3.7,2.5c-0.8,0.3-2-0.1-2.9-0.3c-38.3-8.4-70.7,3.1-98.6,29.3c-21.2,20-30.4,45.7-33.6,74
		c-0.7,6.1-1.6,12.2-3,18.2c-1.5,6.4-3.8,7.8-10.3,7.8c-24,0-48,0-72,0c-11,0-14.8-2.7-16.8-13.6c-0.9-4.7-2.8-5.6-7-5
		c-4.1,0.6-9.5-0.8-12.1,1.3c-2.5,2-2.1,7.6-3.1,11.5c-8.2,33.7-34.8,57.5-68.9,61.5c-32.2,3.8-63.5-13-79.2-42.5
		C4.3,304.7,36,244,90.2,237.4c33.9-4.1,64.6,11.7,80.7,41.9c2,3.8,4,5,8.1,3.5C183.2,281.7,187.6,280.7,192.6,279.3z M158.5,323.8
		c-11.2,0-22,0.1-32.8-0.1c-4.1-0.1-6.8,1-9.3,4.7c-5.8,8.6-17.3,10.4-26.2,5c-8.6-5.3-11.8-16.7-7.1-25.9c4.4-8.9,16-13.9,24.6-9.1
		c6,3.3,11,2,16.6,0.5c7.2-2,14.4-4,21.6-6.1c2.3-0.7,4.6-1.5,6.9-2.3c-10.5-24.4-42.2-38.3-68-30.4C54.5,269.3,38,298,43,326.1
		c5.5,31.5,32.2,51.6,63.6,49C133.4,372.7,158,348.3,158.5,323.8z"/>
	<path class="st0" d="M367.8,250.4c-3.1-6.1-6-11.8-9.3-18.3c5.5-2.9,10.9-5.6,16.6-8.6c3.3,6.3,6.4,12.1,9.7,18.3
		c25.1-8.2,49.1-6.2,71.4,8.2c15.8,10.2,26.8,24.5,32.3,42.6c11.6,38.5-5.7,78.7-40.7,95.4c-36.2,17.2-78.2,6.1-100.7-26.4
		C326,331.3,326.3,280.7,367.8,250.4z M377.9,269.8c-24.7,16.9-31,52.9-14.4,78.7c17,26.4,52.6,34.7,79.3,18.6
		c27.1-16.4,36.6-51.4,21.5-78.6c-16.1-28.9-49.6-35.6-69.4-27.1c5.7,11.1,11.4,22.2,17.3,33.1c0.7,1.3,2.8,2.1,4.4,2.5
		c10.4,2.4,17.4,12.2,15.8,22.3c-1.3,8.2-5.9,13.9-13.7,16.3c-7.6,2.4-14.6,0.5-20.1-5.4c-5.8-6.2-6.7-13.5-4-21.4
		c0.6-1.6,1.4-3.8,0.8-5C389.7,292.5,383.8,281.3,377.9,269.8z"/>
	<path class="st0" d="M330.4,103.3c22.7,6.7,43.7,13.4,62.8,24.9c4,2.4,6.2,5.9,6.7,10.5c0.6,6,1.5,11.9,2,17.8
		c0.4,5.1,1.6,11.1-4.1,13.8c-6.2,3-13.1,3.2-18.9-1.4c-4.5-3.6-9-7.5-12.4-12.2c-11-15-21.6-30.3-32.3-45.5
		C332.7,109.3,332,106.9,330.4,103.3z"/>
	<path class="st0" d="M294.6,116.8c1,0.3,2.4,0.6,3.9,1.1c8,2.4,16,4.8,23.9,7.4c4.8,1.6,6.8,5.6,5.3,9.7c-1.4,4-5,5.7-9.8,4.3
		c-8.6-2.5-17.3-5.1-25.8-7.9c-4.2-1.4-6.3-4.5-5.3-9C287.6,118.8,290.3,117,294.6,116.8z"/>
</g>
</svg>
